{"title":"Miley Cyrus - Party In The U.S.A. [Music Video] 720p [Sbyky]","uid":9131545,"size":58507570,"categoryP":"video","categoryS":"music_videos","magnet":"?xt=urn:btih:b9ffc6a8139061900f070727f4eaf480e2d73530&amp;dn=Miley+Cyrus+-+Party+In+The+U.S.A.+%5BMusic+Video%5D+720p+%5BSbyky%5D&amp;tr=udp%3A%2F%2Ftracker.openbittorrent.com%3A80&amp;tr=udp%3A%2F%2Fopen.demonii.com%3A1337&amp;tr=udp%3A%2F%2Ftracker.coppersurfer.tk%3A6969&amp;tr=udp%3A%2F%2Fexodus.desync.com%3A6969","seeders":6,"leechers":0,"uploader":"Sbyky","files":1,"time":1383329930,"description":"[IMG]http://cdn.piczend.com/images/H5DifKQo/1383267227_partyintheusa.jpg[/IMG]\n\nGeneral\nComplete name                            : Miley Cyrus - Party In The U.S.A. [Music Video] 720p [Sbyky].MP4\nFormat                                   : MPEG-4\nFormat profile                           : Base Media\nCodec ID                                 : isom\nFile size                                : 55.8 MiB\nDuration                                 : 3mn 21s\nOverall bit rate mode                    : Variable\nOverall bit rate                         : 2 327 Kbps\nEncoded date                             : UTC 2013-09-10 10:51:11\nTagged date                              : UTC 2013-09-10 10:51:11\n\nVideo\nID                                       : 1\nFormat                                   : AVC\nFormat/Info                              : Advanced Video Codec\nFormat profile                           : &lt;a class=&quot;__cf_email__&quot; href=&quot;/cdn-cgi/l/email-protection&quot; data-cfemail=&quot;ade0ccc4c3ede19e839c&quot;&gt;[email&amp;#160;protected]&lt;/a&gt;&lt;script cf-hash='f9e31' type=&quot;text/javascript&quot;&gt;\n/* &lt;![CDATA[ */!function(){try{var t=&quot;currentScript&quot;in document?document.currentScript:function(){for(var t=document.getElementsByTagName(&quot;script&quot;),e=t.length;e--;)if(t[e].getAttribute(&quot;cf-hash&quot;))return t[e]}();if(t&amp;&amp;t.previousSibling){var e,r,n,i,c=t.previousSibling,a=c.getAttribute(&quot;data-cfemail&quot;);if(a){for(e=&quot;&quot;,r=parseInt(a.substr(0,2),16),n=2;a.length-n;n+=2)i=parseInt(a.substr(n,2),16)^r,e+=String.fromCharCode(i);e=document.createTextNode(e),c.parentNode.replaceChild(e,c)}}}catch(u){}}();/* ]]&gt; */&lt;/script&gt;\nFormat settings, CABAC                   : Yes\nFormat settings, ReFrames                : 3 frames\nCodec ID                                 : avc1\nCodec ID/Info                            : Advanced Video Coding\nDuration                                 : 3mn 20s\nBit rate                                 : 2 072 Kbps\nWidth                                    : 1 280 pixels\nHeight                                   : 548 pixels\nDisplay aspect ratio                     : 2.35:1\nFrame rate mode                          : Variable\nFrame rate                               : 23.976 fps\nMinimum frame rate                       : 23.974 fps\nMaximum frame rate                       : 4 090.909 fps\nColor space                              : YUV\nChroma subsampling                       : 4:2:0\nBit depth                                : 8 bits\nScan type                                : Progressive\nBits/(Pixel*Frame)                       : 0.123\nStream size                              : 49.6 MiB (89%)\nEncoded date                             : UTC 2013-09-10 10:51:11\nTagged date                              : UTC 2013-09-10 10:51:11\n\nAudio\nID                                       : 2\nFormat                                   : AAC\nFormat/Info                              : Advanced Audio Codec\nFormat profile                           : LC\nCodec ID                                 : 40\nDuration                                 : 3mn 21s\nBit rate mode                            : Variable\nBit rate                                 : 254 Kbps\nChannel(s)                               : 2 channels\nChannel positions                        : Front: L R\nSampling rate                            : 44.1 KHz\nCompression mode                         : Lossy\nDelay relative to video                  : -3s 754ms\nStream size                              : 6.08 MiB (11%)\nEncoded date                             : UTC 2013-09-10 10:51:07\nTagged date                              : UTC 2013-09-10 10:51:07\n\nShared By Sbyky\n[IMG]http://cdn.piczend.com/images/X3Ag13N3/1379453786_saythanks.gif[/IMG]\n[IMG]http://cdn.piczend.com/images/gGqhX2S8/1379453780_keepseeding.gif[/IMG]","torrent":{"xt":"urn:btih:b9ffc6a8139061900f070727f4eaf480e2d73530","amp;dn":"Miley+Cyrus+-+Party+In+The+U.S.A.+%5BMusic+Video%5D+720p+%5BSbyky%5D","amp;tr":["udp%3A%2F%2Ftracker.openbittorrent.com%3A80","udp%3A%2F%2Fopen.demonii.com%3A1337","udp%3A%2F%2Ftracker.coppersurfer.tk%3A6969","udp%3A%2F%2Fexodus.desync.com%3A6969"],"infoHash":"b9ffc6a8139061900f070727f4eaf480e2d73530","infoHashBuffer":{"type":"Buffer","data":[185,255,198,168,19,144,97,144,15,7,7,39,244,234,244,128,226,215,53,48]},"announce":[],"urlList":[]}}